<svg xmlns="http://www.w3.org/2000/svg" width="27" height="27" viewBox="0 0 27 27">
  <defs>
    <style>
      .cls-1 {
        fill: none;
      }

      .cls-2 {
        fill: #6b6b6b;
      }
    </style>
  </defs>
  <g id="touch_app-24px" transform="translate(0 0.23)">
    <g id="Group_1753" data-name="Group 1753">
      <rect id="Rectangle_1813" data-name="Rectangle 1813" class="cls-1" width="27" height="27" transform="translate(0 -0.23)"/>
    </g>
    <g id="Group_1755" data-name="Group 1755" transform="translate(5.574 1.115)">
      <g id="Group_1754" data-name="Group 1754">
        <path id="Path_1513" data-name="Path 1513" class="cls-2" d="M9.228,10.191V6.019a2.789,2.789,0,0,1,5.577,0v4.172a5.019,5.019,0,1,0-5.577,0Zm6.135,2.755a2.2,2.2,0,0,0-.993-.234h-.68V6.019a1.673,1.673,0,0,0-3.346,0V18l-3.837-.8A1.254,1.254,0,0,0,5.357,19.3L9.83,23.777a2.275,2.275,0,0,0,1.584.647h6.8a2.225,2.225,0,0,0,2.209-1.919l.7-4.986a2.232,2.232,0,0,0-1.216-2.309Z" transform="translate(-4.997 -1)"/>
      </g>
    </g>
  </g>
</svg>
